{"title":"Watch.What.Happens.Live.2017.05.01.Naomi.Watts.Susan.Sarandon","magnet":"magnet:?xt=urn:btih:b6383458e2a268adaecf21ce363e29e8d196d73c&dn=Watch.What.Happens.Live.2017.05.01.Naomi.Watts.Susan.Sarandon&tr=udp%3A%2F%2Ftracker.leechers-paradise.org%3A6969&tr=udp%3A%2F%2Fzer0day.ch%3A1337&tr=udp%3A%2F%2Fopen.demonii.com%3A1337&tr=udp%3A%2F%2Ftracker.coppersurfer.tk%3A6969&tr=udp%3A%2F%2Fexodus.desync.com%3A6969","uploader":"brablay","categoryP":"video","categoryS":"tv_shows","size":"318295706","seeders":"1","leechers":"3","description":"What Happens Live with Andy Cohen Season 14, Episode 78 Naomi Watts; Susan Sarandon\r\n\r\nFirst Aired: May 1, 2017\r\n\r\nVideo\r\nID                                       : 1\r\nFormat                                   : AVC\r\nFormat/Info                              : Advanced Video Codec\r\nFormat profile                           : <a href=\"/cdn-cgi/l/email-protection\" class=\"__cf_email__\" data-cfemail=\"a7eac6cec9e7eb948996\">[email&#xA0;protected]</a>\r\nFormat settings, CABAC                   : Yes\r\nFormat settings, RefFrames               : 1 frame\r\nFormat settings, GOP                     : M=1, N=60\r\nCodec ID                                 : V_MPEG4/ISO/AVC\r\nDuration                                 : 21 min 48 s\r\nBit rate                                 : 1 843 kb/s\r\nWidth                                    : 960 pixels\r\nHeight                                   : 544 pixels\r\nDisplay aspect ratio                     : 16:9\r\nFrame rate mode                          : Constant\r\nFrame rate                               : 29.970 (30000/1001) FPS\r\nColor space                              : YUV\r\nChroma subsampling                       : 4:2:0\r\nBit depth                                : 8 bits\r\nScan type                                : Progressive\r\nBits/(Pixel*Frame)                       : 0.118\r\nStream size                              : 292 MiB (96%)\r\nWriting library                          : x264 core 120\r\nEncoding settings                        : cabac=1 / ref=1 / deblock=1:0:0 / analyse=0x1:0x111 / me=hex / subme=6 / psy=1 / psy_rd=1.00:0.00 / mixed_ref=0 / me_range=16 / chroma_me=0 / trellis=1 / 8x8dct=0 / cqm=0 / deadzone=21,11 / fast_pskip=1 / chroma_qp_offset=-2 / threads=8 / sliced_threads=0 / nr=0 / decimate=1 / interlaced=0 / bluray_compat=0 / constrained_intra=0 / bframes=0 / weightp=2 / keyint=60 / keyint_min=25 / scenecut=0 / intra_refresh=0 / rc=abr / mbtree=0 / bitrate=1843 / ratetol=1.0 / qcomp=0.60 / qpmin=10 / qpmax=51 / qpstep=4 / ip_ratio=1.40 / aq=1:1.00\r\nDefault                                  : Yes\r\nForced                                   : No\r\n\r\nAudio\r\nID                                       : 2\r\nFormat                                   : AAC\r\nFormat/Info                              : Advanced Audio Codec\r\nFormat profile                           : LC\r\nCodec ID                                 : A_AAC\r\nDuration                                 : 21 min 48 s\r\nBit rate                                 : 74.7 kb/s\r\nChannel(s)                               : 2 channels\r\nChannel positions                        : Front: L R\r\nSampling rate                            : 44.1 kHz\r\nFrame rate                               : 43.066 FPS (1024 SPF)\r\nCompression mode                         : Lossy\r\nStream size                              : 11.6 MiB (4%)\r\nDefault                                  : Yes\r\nForced                                   : No","last_updated":"2017-11-05T12:03:25.627Z","parsed":{"xt":"urn:btih:b6383458e2a268adaecf21ce363e29e8d196d73c","dn":"Watch.What.Happens.Live.2017.05.01.Naomi.Watts.Susan.Sarandon","tr":["udp://exodus.desync.com:6969","udp://open.demonii.com:1337","udp://tracker.coppersurfer.tk:6969","udp://tracker.leechers-paradise.org:6969","udp://zer0day.ch:1337"],"infoHash":"b6383458e2a268adaecf21ce363e29e8d196d73c","infoHashBuffer":{"type":"Buffer","data":[182,56,52,88,226,162,104,173,174,207,33,206,54,62,41,232,209,150,215,60]},"name":"Watch.What.Happens.Live.2017.05.01.Naomi.Watts.Susan.Sarandon","announce":["udp://exodus.desync.com:6969","udp://open.demonii.com:1337","udp://tracker.coppersurfer.tk:6969","udp://tracker.leechers-paradise.org:6969","udp://zer0day.ch:1337"],"urlList":[]}}